<svg width="18" height="17" viewBox="0 0 18 17" fill="none" xmlns="http://www.w3.org/2000/svg">
<path d="M17.9307 4.96273C17.9307 4.01242 17.7195 3.48447 17.5083 2.85093C17.2971 2.32298 16.9804 1.79503 16.558 1.37267C16.1356 0.84472 15.6077 0.63354 15.0797 0.42236C14.5518 0.21118 13.9182 0.10559 12.9679 0C12.0176 0 11.7008 0 9.37787 0C7.16048 0 6.84371 0 5.8934 0C4.94309 0 4.41514 0.21118 3.7816 0.42236C3.25365 0.63354 2.7257 0.95031 2.30333 1.37267C1.88097 1.90062 1.5642 2.32298 1.35302 2.95652C1.14184 3.48447 1.03625 4.11801 0.930664 4.96273C0.930664 5.91304 0.930664 6.22981 0.930664 8.4472C0.930664 10.7702 0.930664 11.087 0.930664 11.9317C0.930664 12.882 1.14184 13.4099 1.35302 14.0435C1.5642 14.5714 1.88097 15.0994 2.30333 15.5217C2.83128 16.0497 3.25365 16.2609 3.7816 16.472C4.30955 16.6832 4.94309 16.7888 5.8934 16.8944C6.84371 16.8944 7.05489 16.8944 9.37787 16.8944C11.7008 16.8944 12.0176 16.8944 12.8623 16.8944C13.8127 16.8944 14.3406 16.6832 14.9741 16.472C15.5021 16.2609 16.03 15.9441 16.4524 15.5217C16.9804 14.9938 17.1915 14.5714 17.4027 14.0435C17.6139 13.5155 17.7195 12.882 17.8251 11.9317C17.9307 10.9814 17.8251 10.7702 17.8251 8.4472C17.8251 6.12422 17.9307 5.91304 17.9307 4.96273ZM9.37787 12.882C6.9493 12.882 5.04868 10.8758 5.04868 8.5528C5.04868 6.12422 7.05489 4.2236 9.37787 4.2236C11.8064 4.2236 13.7071 6.22981 13.7071 8.5528C13.8127 10.8758 11.8064 12.882 9.37787 12.882ZM13.9182 4.96273C13.3903 4.96273 12.8623 4.54037 12.8623 3.90683C12.8623 3.37888 13.2847 2.85093 13.9182 2.85093C14.4462 2.85093 14.9741 3.27329 14.9741 3.90683C14.9741 4.54037 14.5518 4.96273 13.9182 4.96273Z" fill="#E8E8E8"/>
</svg>
