<svg width="20" height="19" viewBox="0 0 20 19" fill="none" xmlns="http://www.w3.org/2000/svg">
<path d="M18.5829 0H2.28428C1.53746 0 0.930664 0.589644 0.930664 1.31348V16.9045C0.930664 17.6283 1.53746 18.218 2.28428 18.218H18.5829C19.3297 18.218 19.9407 17.6283 19.9407 16.9045V1.31348C19.9407 0.589644 19.3297 0 18.5829 0ZM6.67611 15.6154H3.85855V6.9212H6.68036V15.6154H6.67611ZM5.26733 5.73378C4.36351 5.73378 3.63366 5.03027 3.63366 4.16817C3.63366 3.30607 4.36351 2.60257 5.26733 2.60257C6.16692 2.60257 6.90101 3.30607 6.90101 4.16817C6.90101 5.03434 6.17116 5.73378 5.26733 5.73378ZM17.2377 15.6154H14.4202V11.3862C14.4202 10.3777 14.3989 9.08052 12.9562 9.08052C11.488 9.08052 11.2631 10.1785 11.2631 11.313V15.6154H8.44558V6.9212H11.1486V8.10862H11.1868C11.5644 7.42545 12.4852 6.70568 13.8558 6.70568C16.7073 6.70568 17.2377 8.50714 17.2377 10.8495V15.6154Z" fill="#E8E8E8"/>
</svg>
