<svg width="185" height="65" viewBox="0 0 185 65" fill="none" xmlns="http://www.w3.org/2000/svg">
<path opacity="0.6" d="M19.938 42.74C20.6787 42.74 21.2727 42.9307 21.72 43.312C22.1673 43.6933 22.391 44.2103 22.391 44.863C22.391 45.5157 22.1637 46.0253 21.709 46.392C21.2617 46.7513 20.6677 46.931 19.927 46.931L19.85 46.986H18.068V50H17.188V42.74H19.938ZM19.927 46.161C20.4477 46.161 20.8327 46.0547 21.082 45.842C21.3387 45.622 21.467 45.2957 21.467 44.863C21.467 44.4303 21.3387 44.1077 21.082 43.895C20.8327 43.675 20.4477 43.565 19.927 43.565H18.068V46.161H19.927ZM20.433 46.337L22.831 50H21.786L19.696 46.821L20.433 46.337ZM26.4548 50.11C25.9341 50.11 25.4685 49.9963 25.0578 49.769C24.6545 49.5417 24.3391 49.2153 24.1118 48.79C23.8845 48.3573 23.7708 47.844 23.7708 47.25C23.7708 46.656 23.8845 46.1463 24.1118 45.721C24.3391 45.2883 24.6508 44.9583 25.0468 44.731C25.4428 44.5037 25.8938 44.39 26.3998 44.39C26.9131 44.39 27.3495 44.5 27.7088 44.72C28.0755 44.94 28.3541 45.2407 28.5448 45.622C28.7355 45.996 28.8308 46.4177 28.8308 46.887C28.8308 47.0117 28.8271 47.1253 28.8198 47.228C28.8125 47.3307 28.8015 47.4223 28.7868 47.503H24.3428V46.722H28.4018L27.9508 46.81C27.9508 46.282 27.8041 45.875 27.5108 45.589C27.2248 45.303 26.8471 45.16 26.3778 45.16C26.0185 45.16 25.7068 45.2443 25.4428 45.413C25.1861 45.5743 24.9845 45.8127 24.8378 46.128C24.6985 46.436 24.6288 46.81 24.6288 47.25C24.6288 47.6827 24.7021 48.0567 24.8488 48.372C24.9955 48.6873 25.2008 48.9293 25.4648 49.098C25.7361 49.2593 26.0588 49.34 26.4328 49.34C26.8361 49.34 27.1625 49.263 27.4118 49.109C27.6685 48.955 27.8738 48.746 28.0278 48.482L28.7208 48.889C28.5815 49.1383 28.4018 49.3547 28.1818 49.538C27.9691 49.7213 27.7161 49.8643 27.4228 49.967C27.1368 50.0623 26.8141 50.11 26.4548 50.11ZM33.7164 46.447C33.7164 46.0363 33.6064 45.721 33.3864 45.501C33.1664 45.2737 32.8548 45.16 32.4514 45.16C32.0701 45.16 31.7474 45.2443 31.4834 45.413C31.2194 45.5743 31.0251 45.8383 30.9004 46.205L30.1854 45.765C30.3321 45.3543 30.6034 45.0243 30.9994 44.775C31.3954 44.5183 31.8868 44.39 32.4734 44.39C32.8694 44.39 33.2288 44.4597 33.5514 44.599C33.8741 44.731 34.1271 44.9363 34.3104 45.215C34.5011 45.4863 34.5964 45.8383 34.5964 46.271V48.933C34.5964 49.197 34.7358 49.329 35.0144 49.329C35.1538 49.329 35.2894 49.3107 35.4214 49.274L35.3774 49.967C35.2308 50.0403 35.0401 50.077 34.8054 50.077C34.5928 50.077 34.4021 50.0367 34.2334 49.956C34.0648 49.8753 33.9328 49.7543 33.8374 49.593C33.7421 49.4243 33.6944 49.2153 33.6944 48.966V48.856L33.9144 48.889C33.8264 49.175 33.6761 49.4097 33.4634 49.593C33.2508 49.769 33.0124 49.901 32.7484 49.989C32.4844 50.0697 32.2241 50.11 31.9674 50.11C31.6448 50.11 31.3441 50.055 31.0654 49.945C30.7868 49.835 30.5631 49.67 30.3944 49.45C30.2331 49.2227 30.1524 48.944 30.1524 48.614C30.1524 48.2033 30.2881 47.866 30.5594 47.602C30.8381 47.3307 31.2231 47.1473 31.7144 47.052L33.8924 46.623V47.349L32.1214 47.712C31.7621 47.7853 31.4944 47.888 31.3184 48.02C31.1424 48.152 31.0544 48.3353 31.0544 48.57C31.0544 48.7973 31.1424 48.9843 31.3184 49.131C31.5018 49.2703 31.7584 49.34 32.0884 49.34C32.3011 49.34 32.5028 49.3143 32.6934 49.263C32.8914 49.2043 33.0674 49.12 33.2214 49.01C33.3754 48.8927 33.4964 48.7497 33.5844 48.581C33.6724 48.405 33.7164 48.1997 33.7164 47.965V46.447ZM37.5709 41.97V48.603C37.5709 48.8817 37.6222 49.076 37.7249 49.186C37.8276 49.2887 37.9926 49.34 38.2199 49.34C38.3666 49.34 38.4876 49.329 38.5829 49.307C38.6782 49.285 38.8066 49.2447 38.9679 49.186L38.8249 49.956C38.7076 50.0073 38.5792 50.044 38.4399 50.066C38.3006 50.0953 38.1576 50.11 38.0109 50.11C37.5636 50.11 37.2299 49.989 37.0099 49.747C36.7972 49.505 36.6909 49.1347 36.6909 48.636V41.97H37.5709ZM43.6245 50V42.74H48.7175V43.565H44.5045V45.908H47.7825V46.733H44.5045V49.175H48.8825V50H43.6245ZM52.4542 50.11C51.9188 50.11 51.4238 49.9963 50.9692 49.769C50.5218 49.5417 50.1772 49.219 49.9352 48.801L50.6832 48.262C50.8445 48.5993 51.0792 48.8633 51.3872 49.054C51.7025 49.2447 52.0802 49.34 52.5202 49.34C52.9088 49.34 53.2132 49.2667 53.4332 49.12C53.6532 48.966 53.7632 48.768 53.7632 48.526C53.7632 48.372 53.7118 48.2327 53.6092 48.108C53.5138 47.976 53.3268 47.8807 53.0482 47.822L51.7282 47.547C51.1928 47.437 50.8078 47.2537 50.5732 46.997C50.3458 46.7403 50.2322 46.4213 50.2322 46.04C50.2322 45.7393 50.3165 45.4643 50.4852 45.215C50.6612 44.9657 50.9068 44.7677 51.2222 44.621C51.5448 44.467 51.9225 44.39 52.3552 44.39C52.8978 44.39 53.3562 44.4963 53.7302 44.709C54.1042 44.9217 54.3828 45.2223 54.5662 45.611L53.8292 46.095C53.7045 45.7723 53.5028 45.5377 53.2242 45.391C52.9455 45.237 52.6558 45.16 52.3552 45.16C52.0912 45.16 51.8638 45.1967 51.6732 45.27C51.4898 45.3433 51.3468 45.446 51.2442 45.578C51.1488 45.7027 51.1012 45.8457 51.1012 46.007C51.1012 46.1683 51.1562 46.3187 51.2662 46.458C51.3762 46.59 51.5815 46.6853 51.8822 46.744L53.2572 47.03C53.7705 47.1327 54.1298 47.3013 54.3352 47.536C54.5405 47.7707 54.6432 48.0567 54.6432 48.394C54.6432 48.7387 54.5515 49.043 54.3682 49.307C54.1848 49.5637 53.9282 49.7617 53.5982 49.901C53.2682 50.0403 52.8868 50.11 52.4542 50.11ZM57.573 42.938V48.482C57.573 48.7533 57.65 48.955 57.804 49.087C57.958 49.219 58.156 49.285 58.398 49.285C58.6106 49.285 58.794 49.2483 58.948 49.175C59.102 49.1017 59.2413 49.0027 59.366 48.878L59.674 49.615C59.5053 49.769 59.3036 49.89 59.069 49.978C58.8416 50.066 58.5776 50.11 58.277 50.11C57.9983 50.11 57.738 50.0623 57.496 49.967C57.254 49.8643 57.0596 49.7067 56.913 49.494C56.7736 49.274 56.7003 48.988 56.693 48.636V43.18L57.573 42.938ZM59.575 44.5V45.259H55.593V44.5H59.575ZM64.0954 46.447C64.0954 46.0363 63.9854 45.721 63.7654 45.501C63.5454 45.2737 63.2337 45.16 62.8304 45.16C62.449 45.16 62.1264 45.2443 61.8624 45.413C61.5984 45.5743 61.404 45.8383 61.2794 46.205L60.5644 45.765C60.711 45.3543 60.9824 45.0243 61.3784 44.775C61.7744 44.5183 62.2657 44.39 62.8524 44.39C63.2484 44.39 63.6077 44.4597 63.9304 44.599C64.253 44.731 64.506 44.9363 64.6894 45.215C64.88 45.4863 64.9754 45.8383 64.9754 46.271V48.933C64.9754 49.197 65.1147 49.329 65.3934 49.329C65.5327 49.329 65.6684 49.3107 65.8004 49.274L65.7564 49.967C65.6097 50.0403 65.419 50.077 65.1844 50.077C64.9717 50.077 64.781 50.0367 64.6124 49.956C64.4437 49.8753 64.3117 49.7543 64.2164 49.593C64.121 49.4243 64.0734 49.2153 64.0734 48.966V48.856L64.2934 48.889C64.2054 49.175 64.055 49.4097 63.8424 49.593C63.6297 49.769 63.3914 49.901 63.1274 49.989C62.8634 50.0697 62.603 50.11 62.3464 50.11C62.0237 50.11 61.723 50.055 61.4444 49.945C61.1657 49.835 60.942 49.67 60.7734 49.45C60.612 49.2227 60.5314 48.944 60.5314 48.614C60.5314 48.2033 60.667 47.866 60.9384 47.602C61.217 47.3307 61.602 47.1473 62.0934 47.052L64.2714 46.623V47.349L62.5004 47.712C62.141 47.7853 61.8734 47.888 61.6974 48.02C61.5214 48.152 61.4334 48.3353 61.4334 48.57C61.4334 48.7973 61.5214 48.9843 61.6974 49.131C61.8807 49.2703 62.1374 49.34 62.4674 49.34C62.68 49.34 62.8817 49.3143 63.0724 49.263C63.2704 49.2043 63.4464 49.12 63.6004 49.01C63.7544 48.8927 63.8754 48.7497 63.9634 48.581C64.0514 48.405 64.0954 48.1997 64.0954 47.965V46.447ZM68.197 42.938V48.482C68.197 48.7533 68.274 48.955 68.428 49.087C68.582 49.219 68.78 49.285 69.022 49.285C69.2346 49.285 69.418 49.2483 69.572 49.175C69.726 49.1017 69.8653 49.0027 69.99 48.878L70.298 49.615C70.1293 49.769 69.9276 49.89 69.693 49.978C69.4656 50.066 69.2016 50.11 68.901 50.11C68.6223 50.11 68.362 50.0623 68.12 49.967C67.878 49.8643 67.6836 49.7067 67.537 49.494C67.3976 49.274 67.3243 48.988 67.317 48.636V43.18L68.197 42.938ZM70.199 44.5V45.259H66.217V44.5H70.199ZM73.8064 50.11C73.2857 50.11 72.82 49.9963 72.4094 49.769C72.006 49.5417 71.6907 49.2153 71.4634 48.79C71.236 48.3573 71.1224 47.844 71.1224 47.25C71.1224 46.656 71.236 46.1463 71.4634 45.721C71.6907 45.2883 72.0024 44.9583 72.3984 44.731C72.7944 44.5037 73.2454 44.39 73.7514 44.39C74.2647 44.39 74.701 44.5 75.0604 44.72C75.427 44.94 75.7057 45.2407 75.8964 45.622C76.087 45.996 76.1824 46.4177 76.1824 46.887C76.1824 47.0117 76.1787 47.1253 76.1714 47.228C76.164 47.3307 76.153 47.4223 76.1384 47.503H71.6944V46.722H75.7534L75.3024 46.81C75.3024 46.282 75.1557 45.875 74.8624 45.589C74.5764 45.303 74.1987 45.16 73.7294 45.16C73.37 45.16 73.0584 45.2443 72.7944 45.413C72.5377 45.5743 72.336 45.8127 72.1894 46.128C72.05 46.436 71.9804 46.81 71.9804 47.25C71.9804 47.6827 72.0537 48.0567 72.2004 48.372C72.347 48.6873 72.5524 48.9293 72.8164 49.098C73.0877 49.2593 73.4104 49.34 73.7844 49.34C74.1877 49.34 74.514 49.263 74.7634 49.109C75.02 48.955 75.2254 48.746 75.3794 48.482L76.0724 48.889C75.933 49.1383 75.7534 49.3547 75.5334 49.538C75.3207 49.7213 75.0677 49.8643 74.7744 49.967C74.4884 50.0623 74.1657 50.11 73.8064 50.11Z" fill="white"/>
<path d="M25.604 15.4C28.292 15.4 30.532 16.3427 32.324 18.228C34.1347 20.1133 35.04 22.4373 35.04 25.2C35.04 27.9627 34.1347 30.2867 32.324 32.172C30.532 34.0573 28.292 35 25.604 35H17.82V15.4H25.604ZM25.604 31.304C27.3027 31.304 28.684 30.744 29.748 29.624C30.812 28.4853 31.344 27.0107 31.344 25.2C31.344 23.3893 30.812 21.924 29.748 20.804C28.684 19.6653 27.3027 19.096 25.604 19.096H21.684V31.304H25.604ZM46.9897 21H50.6017V35H46.9897V33.432C46.1123 34.7387 44.7217 35.392 42.8177 35.392C41.287 35.392 40.0177 34.8787 39.0097 33.852C38.0203 32.8253 37.5257 31.4067 37.5257 29.596V21H41.1377V29.148C41.1377 30.0813 41.3897 30.8 41.8937 31.304C42.3977 31.7893 43.0697 32.032 43.9097 32.032C44.843 32.032 45.5897 31.7427 46.1497 31.164C46.7097 30.5853 46.9897 29.7173 46.9897 28.56V21ZM62.0578 20.608C63.9431 20.608 65.5485 21.3267 66.8738 22.764C68.2178 24.1827 68.8898 25.928 68.8898 28C68.8898 30.072 68.2178 31.8267 66.8738 33.264C65.5485 34.6827 63.9431 35.392 62.0578 35.392C60.0978 35.392 58.5858 34.7107 57.5218 33.348V35H53.9098V15.4H57.5218V22.652C58.5858 21.2893 60.0978 20.608 62.0578 20.608ZM58.6138 30.856C59.3418 31.584 60.2658 31.948 61.3858 31.948C62.5058 31.948 63.4298 31.584 64.1578 30.856C64.9045 30.1093 65.2778 29.1573 65.2778 28C65.2778 26.8427 64.9045 25.9 64.1578 25.172C63.4298 24.4253 62.5058 24.052 61.3858 24.052C60.2658 24.052 59.3418 24.4253 58.6138 25.172C57.8858 25.9 57.5218 26.8427 57.5218 28C57.5218 29.1573 57.8858 30.1093 58.6138 30.856ZM82.0772 21H85.6892V35H82.0772V33.348C80.9945 34.7107 79.4732 35.392 77.5132 35.392C75.6465 35.392 74.0412 34.6827 72.6972 33.264C71.3718 31.8267 70.7092 30.072 70.7092 28C70.7092 25.928 71.3718 24.1827 72.6972 22.764C74.0412 21.3267 75.6465 20.608 77.5132 20.608C79.4732 20.608 80.9945 21.2893 82.0772 22.652V21ZM75.4132 30.856C76.1412 31.584 77.0652 31.948 78.1852 31.948C79.3052 31.948 80.2292 31.584 80.9572 30.856C81.7038 30.1093 82.0772 29.1573 82.0772 28C82.0772 26.8427 81.7038 25.9 80.9572 25.172C80.2292 24.4253 79.3052 24.052 78.1852 24.052C77.0652 24.052 76.1412 24.4253 75.4132 25.172C74.6852 25.9 74.3212 26.8427 74.3212 28C74.3212 29.1573 74.6852 30.1093 75.4132 30.856ZM90.7565 19.32C90.1592 19.32 89.6365 19.1053 89.1885 18.676C88.7592 18.228 88.5445 17.7053 88.5445 17.108C88.5445 16.5107 88.7592 15.988 89.1885 15.54C89.6365 15.092 90.1592 14.868 90.7565 14.868C91.3725 14.868 91.8952 15.092 92.3245 15.54C92.7725 15.988 92.9965 16.5107 92.9965 17.108C92.9965 17.7053 92.7725 18.228 92.3245 18.676C91.8952 19.1053 91.3725 19.32 90.7565 19.32ZM88.9645 35V21H92.5765V35H88.9645ZM106.802 35L102.854 28.196H99.9145V35H96.0505V15.4H103.89C105.701 15.4 107.241 16.0347 108.51 17.304C109.78 18.5733 110.414 20.104 110.414 21.896C110.414 23.1093 110.069 24.2387 109.378 25.284C108.688 26.3107 107.773 27.0853 106.634 27.608L110.974 35H106.802ZM99.9145 19.012V24.808H103.89C104.618 24.808 105.244 24.528 105.766 23.968C106.289 23.3893 106.55 22.6987 106.55 21.896C106.55 21.0933 106.289 20.412 105.766 19.852C105.244 19.292 104.618 19.012 103.89 19.012H99.9145ZM115.423 29.484C115.908 31.2387 117.224 32.116 119.371 32.116C120.752 32.116 121.797 31.6493 122.507 30.716L125.419 32.396C124.037 34.3933 122.003 35.392 119.315 35.392C117 35.392 115.143 34.692 113.743 33.292C112.343 31.892 111.643 30.128 111.643 28C111.643 25.8907 112.333 24.136 113.715 22.736C115.096 21.3173 116.869 20.608 119.035 20.608C121.088 20.608 122.777 21.3173 124.103 22.736C125.447 24.1547 126.119 25.9093 126.119 28C126.119 28.4667 126.072 28.9613 125.979 29.484H115.423ZM115.367 26.684H122.507C122.301 25.732 121.872 25.0227 121.219 24.556C120.584 24.0893 119.856 23.856 119.035 23.856C118.064 23.856 117.261 24.108 116.627 24.612C115.992 25.0973 115.572 25.788 115.367 26.684ZM139.171 21H142.783V35H139.171V33.348C138.088 34.7107 136.567 35.392 134.607 35.392C132.74 35.392 131.135 34.6827 129.791 33.264C128.466 31.8267 127.803 30.072 127.803 28C127.803 25.928 128.466 24.1827 129.791 22.764C131.135 21.3267 132.74 20.608 134.607 20.608C136.567 20.608 138.088 21.2893 139.171 22.652V21ZM132.507 30.856C133.235 31.584 134.159 31.948 135.279 31.948C136.399 31.948 137.323 31.584 138.051 30.856C138.798 30.1093 139.171 29.1573 139.171 28C139.171 26.8427 138.798 25.9 138.051 25.172C137.323 24.4253 136.399 24.052 135.279 24.052C134.159 24.052 133.235 24.4253 132.507 25.172C131.779 25.9 131.415 26.8427 131.415 28C131.415 29.1573 131.779 30.1093 132.507 30.856ZM146.058 35V14.56H149.67V35H146.058ZM160.984 24.472H157.82V30.296C157.82 30.7813 157.942 31.136 158.184 31.36C158.427 31.584 158.782 31.7147 159.248 31.752C159.715 31.7707 160.294 31.7613 160.984 31.724V35C158.502 35.28 156.747 35.0467 155.72 34.3C154.712 33.5533 154.208 32.2187 154.208 30.296V24.472H151.772V21H154.208V18.172L157.82 17.08V21H160.984V24.472ZM172.96 21H176.824L171.728 35C171 37.016 170.029 38.472 168.816 39.368C167.621 40.2827 166.128 40.6933 164.336 40.6V37.24C165.306 37.2587 166.072 37.0533 166.632 36.624C167.21 36.1947 167.668 35.504 168.004 34.552L162.264 21H166.212L169.852 30.408L172.96 21Z" fill="white"/>
<path d="M41 1L1 1V32.5V64H41" stroke="#FCD54C" stroke-width="2"/>
</svg>
