<!-- Generated by IcoMoon.io -->
<svg version="1.1" xmlns="http://www.w3.org/2000/svg" width="43" height="32" viewBox="0 0 43 32">
<title>Icon</title>
<path fill="#fff" d="M42 16c0-1.105-0.895-2-2-2h-37.333c-1.105 0-2 0.895-2 2s0.895 2 2 2h37.333c1.105 0 2-0.895 2-2z"></path>
<path fill="#fff" d="M42 2.667c0-1.105-0.895-2-2-2h-37.333c-1.105 0-2 0.895-2 2s0.895 2 2 2h37.333c1.105 0 2-0.895 2-2z"></path>
<path fill="#fff" d="M42 29.333c0-1.105-0.895-2-2-2h-37.333c-1.105 0-2 0.895-2 2s0.895 2 2 2h37.333c1.105 0 2-0.895 2-2z"></path>
</svg>
