<svg width="18" height="16" viewBox="0 0 18 16" fill="none" xmlns="http://www.w3.org/2000/svg">
<path d="M16.1395 3.84783C16.1506 4.01669 16.1506 4.18559 16.1506 4.35445C16.1506 9.50499 12.5571 15.4396 5.98917 15.4396C3.96572 15.4396 2.08604 14.8003 0.504883 13.6906C0.792376 13.7268 1.06877 13.7388 1.36733 13.7388C3.03691 13.7388 4.57386 13.1237 5.80119 12.0743C4.23109 12.0381 2.9153 10.9163 2.46196 9.37233C2.68312 9.40849 2.90424 9.43263 3.13646 9.43263C3.45711 9.43263 3.77778 9.38436 4.0763 9.29996C2.43987 8.93807 1.2125 7.37 1.2125 5.47623V5.428C1.68794 5.7175 2.24083 5.89843 2.82681 5.92252C1.86485 5.2229 1.23463 4.02876 1.23463 2.67778C1.23463 1.95406 1.41151 1.29064 1.72112 0.711652C3.4792 3.07584 6.12184 4.61978 9.08509 4.78868C9.02982 4.49918 8.99663 4.19766 8.99663 3.8961C8.99663 1.749 10.5889 0 12.5681 0C13.5963 0 14.5251 0.470425 15.1775 1.23034C15.9846 1.06148 16.7586 0.735786 17.4442 0.289495C17.1788 1.19418 16.6149 1.9541 15.8741 2.43655C16.5928 2.35216 17.2894 2.13499 17.9307 1.83347C17.4443 2.60542 16.8361 3.29294 16.1395 3.84783Z" fill="#E8E8E8"/>
</svg>
