<svg width="21" height="14" viewBox="0 0 21 14" fill="none" xmlns="http://www.w3.org/2000/svg">
<path fill-rule="evenodd" clip-rule="evenodd" d="M8.9191 9.58611V3.9743C10.9113 4.91173 12.4543 5.8173 14.2791 6.79363C12.774 7.62834 10.9113 8.56491 8.9191 9.58611ZM20.0217 1.18328C19.678 0.730524 19.0923 0.378089 18.4688 0.261409C16.6359 -0.0866411 5.20165 -0.0876311 3.36982 0.261409C2.86977 0.355149 2.4245 0.581732 2.042 0.933772C0.430302 2.42967 0.93533 10.4517 1.32381 11.7511C1.48717 12.3136 1.69835 12.7193 1.96431 12.9855C2.30697 13.3376 2.77613 13.5799 3.31502 13.6886C4.82412 14.0008 12.5987 14.1753 18.4369 13.7355C18.9748 13.6418 19.4509 13.3916 19.8264 13.0246C21.3166 11.5347 21.215 3.06213 20.0217 1.18328Z" fill="#E8E8E8"/>
</svg>
