<svg id="hundred" viewBox="0 0 100 42" xmlns="http://www.w3.org/2000/svg"><path d="M10.46 41V15.02c.04-1.12.06-2.26.06-3.42-1.32 1.2-2.78 2.26-4.38 3.18-1.6.88-3.28 1.48-5.04 1.8L.14 8.06c1.04-.08 2.14-.34 3.3-.78 1.2-.44 2.38-.98 3.54-1.62 1.16-.64 2.2-1.32 3.12-2.04.92-.76 1.62-1.5 2.1-2.22h8.22V41h-9.96Zm33.7.6c-5.4 0-9.5-1.72-12.3-5.16-2.76-3.44-4.14-8.52-4.14-15.24 0-6.72 1.38-11.8 4.14-15.24C34.66 2.52 38.76.8 44.16.8s9.48 1.72 12.24 5.16c2.8 3.44 4.2 8.52 4.2 15.24 0 6.72-1.4 11.8-4.2 15.24-2.76 3.44-6.84 5.16-12.24 5.16Zm0-8.04c1.48 0 2.68-.4 3.6-1.2.92-.84 1.58-2.16 1.98-3.96.44-1.84.66-4.24.66-7.2s-.22-5.34-.66-7.14c-.4-1.84-1.06-3.16-1.98-3.96-.92-.84-2.12-1.26-3.6-1.26-1.44 0-2.64.42-3.6 1.26-.92.8-1.6 2.12-2.04 3.96-.4 1.8-.6 4.18-.6 7.14s.2 5.36.6 7.2c.44 1.8 1.12 3.12 2.04 3.96.96.8 2.16 1.2 3.6 1.2Zm38.613 8.04c-5.4 0-9.5-1.72-12.3-5.16-2.76-3.44-4.14-8.52-4.14-15.24 0-6.72 1.38-11.8 4.14-15.24 2.8-3.44 6.9-5.16 12.3-5.16s9.48 1.72 12.24 5.16c2.8 3.44 4.2 8.52 4.2 15.24 0 6.72-1.4 11.8-4.2 15.24-2.76 3.44-6.84 5.16-12.24 5.16Zm0-8.04c1.48 0 2.68-.4 3.6-1.2.92-.84 1.58-2.16 1.98-3.96.44-1.84.66-4.24.66-7.2s-.22-5.34-.66-7.14c-.4-1.84-1.06-3.16-1.98-3.96-.92-.84-2.12-1.26-3.6-1.26-1.44 0-2.64.42-3.6 1.26-.92.8-1.6 2.12-2.04 3.96-.4 1.8-.6 4.18-.6 7.14s.2 5.36.6 7.2c.44 1.8 1.12 3.12 2.04 3.96.96.8 2.16 1.2 3.6 1.2Z" fill="#FCD54C"/></svg>