<svg id="quotes" viewBox="0 0 42 32" xmlns="http://www.w3.org/2000/svg"><path d="M9.3.6c2.133 0 3.9.533 5.3 1.6 1.4 1 2.467 2.367 3.2 4.1.733 1.667 1.1 3.533 1.1 5.6 0 2.733-.567 5.367-1.7 7.9a21.983 21.983 0 0 1-4.5 6.8 21.741 21.741 0 0 1-6.6 4.7L.2 26.6a23.116 23.116 0 0 0 4.9-2.7c1.533-1.067 2.833-2.267 3.9-3.6 1.067-1.333 1.833-2.7 2.3-4.1l-.5-.3c-.333.2-.733.4-1.2.6-.467.133-1.133.2-2 .2-1.067 0-2.133-.267-3.2-.8-1.067-.6-1.967-1.433-2.7-2.5C.967 12.267.6 10.867.6 9.2c0-1.8.4-3.333 1.2-4.6A7.895 7.895 0 0 1 5 1.7 8.783 8.783 0 0 1 9.3.6Zm22.5 0c2.133 0 3.9.533 5.3 1.6 1.4 1 2.467 2.367 3.2 4.1.733 1.667 1.1 3.533 1.1 5.6 0 2.733-.567 5.367-1.7 7.9a21.983 21.983 0 0 1-4.5 6.8 21.741 21.741 0 0 1-6.6 4.7l-5.9-4.7a23.117 23.117 0 0 0 4.9-2.7c1.533-1.067 2.833-2.267 3.9-3.6 1.067-1.333 1.833-2.7 2.3-4.1l-.5-.3c-.333.2-.733.4-1.2.6-.467.133-1.133.2-2 .2-1.067 0-2.133-.267-3.2-.8-1.067-.6-1.967-1.433-2.7-2.5-.733-1.133-1.1-2.533-1.1-4.2 0-1.8.4-3.333 1.2-4.6a7.895 7.895 0 0 1 3.2-2.9A8.783 8.783 0 0 1 31.8.6Z" fill="#FCD54C"/></svg>