<svg id="social-icons" width="20" height="162" xmlns="http://www.w3.org/2000/svg"><path id="social-icons" d="m13.882 9.802.493-3.154h-3.082V4.602c0-.863.43-1.704 1.811-1.704h1.401V.213S13.234 0 12.018 0C9.48 0 7.821 1.51 7.821 4.245v2.403H5v3.154h2.821v7.624h3.472V9.802h2.59ZM16.635 41.274c.01.169.01.337.01.506 0 5.15-3.593 11.085-10.16 11.085A9.492 9.492 0 0 1 1 51.116c.287.037.564.049.862.049 1.67 0 3.207-.615 4.434-1.665-1.57-.036-2.886-1.158-3.339-2.702.221.036.442.06.675.06.32 0 .64-.048.94-.132-1.637-.362-2.864-1.93-2.864-3.824v-.048c.475.29 1.028.47 1.614.494-.962-.7-1.592-1.893-1.592-3.244 0-.724.177-1.388.486-1.967 1.758 2.365 4.4 3.909 7.364 4.078a4.783 4.783 0 0 1-.088-.893c0-2.147 1.592-3.896 3.571-3.896 1.028 0 1.957.47 2.61 1.23a6.684 6.684 0 0 0 2.266-.94 3.843 3.843 0 0 1-1.57 2.146 6.694 6.694 0 0 0 2.057-.603 8.094 8.094 0 0 1-1.791 2.015ZM17.652 143.762H1.354c-.747 0-1.354.589-1.354 1.313v15.591c0 .724.607 1.314 1.354 1.314h16.298c.747 0 1.358-.59 1.358-1.314v-15.591c0-.724-.611-1.313-1.358-1.313ZM5.745 159.377H2.928v-8.694H5.75v8.694h-.005Zm-1.408-9.882c-.904 0-1.634-.703-1.634-1.565s.73-1.566 1.634-1.566c.9 0 1.633.704 1.633 1.566 0 .866-.73 1.565-1.633 1.565Zm11.97 9.882H13.49v-4.229c0-1.009-.022-2.306-1.464-2.306-1.469 0-1.694 1.098-1.694 2.233v4.302H7.515v-8.694h2.703v1.187h.038c.378-.683 1.299-1.403 2.67-1.403 2.85 0 3.381 1.802 3.381 4.144v4.766Z" fill="#E8E8E8"/><path id="social-icons" fill-rule="evenodd" clip-rule="evenodd" d="M7.988 82.453v-5.612c1.993.938 3.536 1.844 5.36 2.82-1.505.835-3.367 1.771-5.36 2.792Zm11.103-8.403c-.344-.452-.93-.805-1.553-.921-1.833-.349-13.267-.35-15.099 0-.5.093-.945.32-1.328.672C-.5 75.297.005 83.319.393 84.618c.164.563.375.968.64 1.235.343.352.812.594 1.351.703 1.51.312 9.284.487 15.122.047a2.62 2.62 0 0 0 1.39-.711c1.49-1.49 1.388-9.963.195-11.841Z" fill="#E8E8E8"/><path id="social-icons" d="M18 111.83c0-.95-.211-1.478-.422-2.112a4.422 4.422 0 0 0-.95-1.478c-.423-.528-.951-.739-1.479-.95-.528-.212-1.161-.317-2.112-.423H5.963c-.95 0-1.479.211-2.112.423a4.415 4.415 0 0 0-1.478.95c-.423.528-.74.95-.95 1.584-.212.528-.317 1.161-.423 2.006V118.799c0 .95.211 1.478.422 2.112.212.528.528 1.056.95 1.478.529.528.951.739 1.479.95.528.211 1.161.317 2.112.423H12.932c.95 0 1.478-.212 2.111-.423a4.43 4.43 0 0 0 1.479-.95c.528-.528.739-.95.95-1.478.211-.528.317-1.162.422-2.112.106-.95 0-1.162 0-3.485S18 112.78 18 111.83Zm-8.553 7.919c-2.428 0-4.329-2.006-4.329-4.329 0-2.429 2.006-4.329 4.33-4.329 2.428 0 4.328 2.006 4.328 4.329.106 2.323-1.9 4.329-4.329 4.329Zm4.54-7.919a1.058 1.058 0 0 1-1.055-1.056c0-.528.422-1.056 1.056-1.056.527 0 1.056.422 1.056 1.056 0 .634-.423 1.056-1.056 1.056Z" fill="#E8E8E8"/><path id="social-icons" d="M12.298 115.316a2.84 2.84 0 0 1-2.851 2.851 2.839 2.839 0 0 1-2.851-2.851c0-1.584 1.372-2.746 2.85-2.746 1.585 0 2.852 1.267 2.852 2.746Z" fill="#E8E8E8"/></svg>