<svg id="social" width="14" height="110" xmlns="http://www.w3.org/2000/svg"><path id="social" d="m9.718 6.596.345-2.122H7.905V3.097c0-.58.302-1.147 1.268-1.147h.98V.143S9.263 0 8.413 0C6.636 0 5.475 1.016 5.475 2.856v1.618H3.5v2.122h1.975v5.13h2.43v-5.13h1.813ZM11.644 27.773c.008.114.008.227.008.34 0 3.467-2.515 7.46-7.113 7.46A6.828 6.828 0 0 1 .7 34.396c.201.025.395.033.604.033a4.861 4.861 0 0 0 3.104-1.12c-1.1-.025-2.02-.78-2.338-1.818.155.024.31.04.472.04.225 0 .45-.032.658-.09-1.145-.243-2.004-1.298-2.004-2.572v-.033c.332.195.72.317 1.13.333a2.655 2.655 0 0 1-1.115-2.184 2.7 2.7 0 0 1 .34-1.322c1.231 1.59 3.081 2.63 5.155 2.743a3.098 3.098 0 0 1-.062-.6c0-1.446 1.115-2.622 2.5-2.622.72 0 1.37.316 1.827.828a4.785 4.785 0 0 0 1.587-.634 2.596 2.596 0 0 1-1.1 1.445 4.83 4.83 0 0 0 1.44-.406c-.34.52-.766.982-1.254 1.356ZM12.357 96.742H.947c-.522 0-.947.397-.947.884v10.492c0 .487.425.883.948.883h11.409c.522 0 .95-.396.95-.883V97.626c0-.487-.428-.884-.95-.884ZM4.021 107.25H2.05v-5.85h1.975v5.85h-.003Zm-.986-6.649c-.633 0-1.144-.474-1.144-1.054 0-.58.511-1.053 1.144-1.053.63 0 1.143.473 1.143 1.053 0 .583-.51 1.054-1.143 1.054Zm8.379 6.649H9.443v-2.846c0-.678-.015-1.551-1.025-1.551-1.028 0-1.185.739-1.185 1.502v2.895H5.26v-5.85h1.893v.799h.026c.265-.46.91-.944 1.869-.944 1.996 0 2.367 1.212 2.367 2.788v3.207Z" fill="#E8E8E8"/><path id="social" fill-rule="evenodd" clip-rule="evenodd" d="M5.592 55.486V51.71c1.394.63 2.475 1.24 3.752 1.897-1.054.561-2.358 1.192-3.752 1.879Zm7.772-5.655c-.24-.304-.65-.541-1.087-.62-1.283-.234-9.287-.235-10.57 0-.35.063-.661.216-.93.453C-.35 50.67.004 56.067.276 56.942c.115.378.262.651.449.83.24.237.568.4.945.474 1.056.21 6.499.327 10.585.031a1.86 1.86 0 0 0 .973-.478c1.043-1.003.972-6.704.137-7.969Z" fill="#E8E8E8"/><path id="social" d="M12.6 75.254c0-.64-.148-.995-.295-1.422a2.969 2.969 0 0 0-.666-.994c-.295-.355-.665-.498-1.034-.64-.37-.142-.814-.213-1.479-.284H4.174c-.665 0-1.035.142-1.478.284-.37.142-.74.356-1.035.64-.296.355-.517.64-.665 1.066-.148.355-.222.781-.296 1.35v4.689c0 .64.148.995.296 1.421.148.355.37.71.665.995.37.355.665.497 1.035.64.37.142.813.213 1.478.284h4.878c.666 0 1.035-.142 1.479-.284.37-.143.739-.356 1.034-.64.37-.355.518-.64.666-.995.148-.355.221-.781.295-1.42.074-.64 0-.782 0-2.346 0-1.563.074-1.705.074-2.344Zm-5.987 5.329c-1.7 0-3.03-1.35-3.03-2.914 0-1.634 1.404-2.913 3.03-2.913 1.7 0 3.03 1.35 3.03 2.913.075 1.564-1.33 2.914-3.03 2.914Zm3.178-5.33c-.37 0-.739-.284-.739-.71 0-.355.296-.71.74-.71.37 0 .739.284.739.71s-.296.71-.74.71Z" fill="#E8E8E8"/><path id="social" d="M8.608 77.597c0 1.066-.886 1.919-1.995 1.919s-1.996-.853-1.996-1.919c0-1.065.961-1.847 1.996-1.847 1.109 0 1.995.853 1.995 1.847Z" fill="#E8E8E8"/></svg>