<svg id="twenty" viewBox="0 0 70 42" xmlns="http://www.w3.org/2000/svg"><path d="M1.6 41v-6.6c3.4-2.12 6.3-4.1 8.7-5.94 2.4-1.84 4.34-3.58 5.82-5.22 1.52-1.64 2.64-3.2 3.36-4.68.72-1.48 1.08-2.92 1.08-4.32 0-1.52-.46-2.78-1.38-3.78-.88-1.04-2.2-1.56-3.96-1.56-1.88 0-3.34.7-4.38 2.1-1.04 1.36-1.6 3.36-1.68 6L.34 14.3c.08-2.96.78-5.44 2.1-7.44 1.36-2 3.2-3.5 5.52-4.5C10.28 1.32 12.92.8 15.88.8c2.6 0 4.84.38 6.72 1.14 1.92.72 3.48 1.7 4.68 2.94 1.2 1.2 2.08 2.56 2.64 4.08.6 1.48.9 3 .9 4.56 0 2.56-.66 4.96-1.98 7.2-1.32 2.2-3.24 4.34-5.76 6.42-2.48 2.04-5.5 4.1-9.06 6.18v.06c.68-.04 1.48-.08 2.4-.12.92-.04 1.88-.06 2.88-.06 1-.04 1.9-.06 2.7-.06h9.3V41H1.6Zm51.462.6c-5.4 0-9.5-1.72-12.3-5.16-2.76-3.44-4.14-8.52-4.14-15.24 0-6.72 1.38-11.8 4.14-15.24 2.8-3.44 6.9-5.16 12.3-5.16s9.48 1.72 12.24 5.16c2.8 3.44 4.2 8.52 4.2 15.24 0 6.72-1.4 11.8-4.2 15.24-2.76 3.44-6.84 5.16-12.24 5.16Zm0-8.04c1.48 0 2.68-.4 3.6-1.2.92-.84 1.58-2.16 1.98-3.96.44-1.84.66-4.24.66-7.2s-.22-5.34-.66-7.14c-.4-1.84-1.06-3.16-1.98-3.96-.92-.84-2.12-1.26-3.6-1.26-1.44 0-2.64.42-3.6 1.26-.92.8-1.6 2.12-2.04 3.96-.4 1.8-.6 4.18-.6 7.14s.2 5.36.6 7.2c.44 1.8 1.12 3.12 2.04 3.96.96.8 2.16 1.2 3.6 1.2Z" fill="#FCD54C"/></svg>