<svg id="social" width="14" height="110" viewBox="0 0 14 110" xmlns="http://www.w3.org/2000/svg">
<path id="social" d="M9.71751 6.59604L10.0625 4.47385H7.90527V3.0967C7.90527 2.51611 8.20662 1.95018 9.17279 1.95018H10.1535V0.143372C10.1535 0.143372 9.26354 0 8.41262 0C6.63605 0 5.4748 1.01643 5.4748 2.85645V4.47385H3.5V6.59604H5.4748V11.7263H7.90527V6.59604H9.71751Z" fill="#E8E8E8"/>
<path id="social" d="M11.6444 27.7729C11.6522 27.8865 11.6522 28.0002 11.6522 28.1138C11.6522 31.5797 9.13672 35.5733 4.5392 35.5733C3.12278 35.5733 1.80701 35.1431 0.700195 34.3963C0.90144 34.4207 1.09492 34.4288 1.30391 34.4288C2.47262 34.4288 3.54848 34.0148 4.40761 33.3087C3.30854 33.2843 2.38749 32.5294 2.07015 31.4905C2.22496 31.5148 2.37975 31.531 2.5423 31.531C2.76675 31.531 2.99123 31.4986 3.20019 31.4418C2.05469 31.1982 1.19553 30.143 1.19553 28.8687V28.8362C1.52833 29.031 1.91536 29.1528 2.32555 29.169C1.65217 28.6982 1.21102 27.8946 1.21102 26.9855C1.21102 26.4985 1.33483 26.0521 1.55156 25.6625C2.78221 27.2534 4.63206 28.2924 6.70634 28.406C6.66765 28.2112 6.64442 28.0083 6.64442 27.8054C6.64442 26.3605 7.75897 25.1836 9.14441 25.1836C9.86422 25.1836 10.5144 25.5002 10.971 26.0115C11.536 25.8979 12.0778 25.6787 12.5577 25.3784C12.3719 25.9872 11.9772 26.4986 11.4586 26.8232C11.9617 26.7664 12.4494 26.6203 12.8983 26.4174C12.5578 26.9368 12.132 27.3995 11.6444 27.7729V27.7729Z" fill="#E8E8E8"/>
<path id="social" d="M12.3565 96.7422H0.947532C0.424756 96.7422 0 97.139 0 97.6261V108.118C0 108.605 0.424756 109.001 0.947532 109.001H12.3565C12.8793 109.001 13.307 108.605 13.307 108.118V97.6261C13.307 97.139 12.8793 96.7422 12.3565 96.7422ZM4.02181 107.25H2.04952V101.4H4.02479V107.25H4.02181ZM3.03567 100.601C2.40299 100.601 1.89209 100.127 1.89209 99.5471C1.89209 98.9669 2.40299 98.4935 3.03567 98.4935C3.66538 98.4935 4.17924 98.9669 4.17924 99.5471C4.17924 100.13 3.66835 100.601 3.03567 100.601V100.601ZM11.4149 107.25H9.44265V104.404C9.44265 103.726 9.4278 102.853 8.41789 102.853C7.39016 102.853 7.23273 103.592 7.23273 104.355V107.25H5.26044V101.4H7.15253V102.199H7.17927C7.44362 101.739 8.08818 101.255 9.0476 101.255C11.0437 101.255 11.4149 102.467 11.4149 104.043V107.25V107.25Z" fill="#E8E8E8"/>
<path id="social" fill-rule="evenodd" clip-rule="evenodd" d="M5.59191 55.4859V51.7096C6.98645 52.3404 8.06651 52.9498 9.34392 53.6068C8.29034 54.1684 6.98645 54.7987 5.59191 55.4859ZM13.3637 49.8314C13.1231 49.5267 12.7132 49.2896 12.2767 49.2111C10.9937 48.9769 2.98969 48.9762 1.70741 49.2111C1.35738 49.2741 1.04569 49.4266 0.777933 49.6635C-0.350254 50.6701 0.00326633 56.0684 0.275203 56.9428C0.389555 57.3213 0.537383 57.5942 0.723555 57.7734C0.963416 58.0103 1.29183 58.1734 1.66905 58.2466C2.72542 58.4566 8.16763 58.5741 12.2543 58.2781C12.6309 58.215 12.9642 58.0467 13.227 57.7997C14.2701 56.7971 14.199 51.0957 13.3637 49.8314Z" fill="#E8E8E8"/>
<path id="social" d="M12.6002 75.2536C12.6002 74.6141 12.4524 74.2588 12.3045 73.8325C12.1567 73.4773 11.935 73.122 11.6393 72.8378C11.3437 72.4825 10.9741 72.3404 10.6045 72.1983C10.235 72.0562 9.7915 71.9851 9.12628 71.9141C8.46106 71.9141 8.23933 71.9141 6.61324 71.9141C5.06106 71.9141 4.83933 71.9141 4.17411 71.9141C3.50889 71.9141 3.13933 72.0562 2.69585 72.1983C2.32628 72.3404 1.95672 72.5535 1.66106 72.8378C1.36541 73.193 1.14367 73.4773 0.995847 73.9036C0.848021 74.2588 0.774108 74.6852 0.700195 75.2536C0.700195 75.8931 0.700195 76.1063 0.700195 77.5984C0.700195 79.1616 0.700195 79.3747 0.700195 79.9432C0.700195 80.5827 0.848021 80.9379 0.995847 81.3643C1.14367 81.7195 1.36541 82.0748 1.66106 82.359C2.03063 82.7143 2.32628 82.8564 2.69585 82.9985C3.06541 83.1406 3.50889 83.2117 4.17411 83.2827C4.83933 83.2827 4.98715 83.2827 6.61324 83.2827C8.23933 83.2827 8.46107 83.2827 9.05237 83.2827C9.71759 83.2827 10.0872 83.1406 10.5306 82.9985C10.9002 82.8564 11.2698 82.6432 11.5654 82.359C11.935 82.0037 12.0828 81.7195 12.2306 81.3643C12.3785 81.009 12.4524 80.5827 12.5263 79.9432C12.6002 79.3037 12.5263 79.1616 12.5263 77.5984C12.5263 76.0352 12.6002 75.8931 12.6002 75.2536ZM6.61324 80.5827C4.91324 80.5827 3.5828 79.2326 3.5828 77.6694C3.5828 76.0352 4.98715 74.7562 6.61324 74.7562C8.31324 74.7562 9.64367 76.1063 9.64367 77.6694C9.71759 79.2326 8.31324 80.5827 6.61324 80.5827ZM9.7915 75.2536C9.42193 75.2536 9.05237 74.9694 9.05237 74.5431C9.05237 74.1878 9.34802 73.8325 9.7915 73.8325C10.1611 73.8325 10.5306 74.1167 10.5306 74.5431C10.5306 74.9694 10.235 75.2536 9.7915 75.2536Z" fill="#E8E8E8"/>
<path id="social" d="M8.60849 77.5974C8.60849 78.6632 7.72154 79.5159 6.61284 79.5159C5.50414 79.5159 4.61719 78.6632 4.61719 77.5974C4.61719 76.5316 5.57806 75.75 6.61284 75.75C7.72154 75.75 8.60849 76.6026 8.60849 77.5974Z" fill="#E8E8E8"/>
</svg>
