<svg id="hundred" viewBox="0 0 100 42"  xmlns="http://www.w3.org/2000/svg">
<path d="M10.46 41V18.2C10.46 17.16 10.46 16.1 10.46 15.02C10.5 13.9 10.52 12.76 10.52 11.6C9.2 12.8 7.74 13.86 6.14 14.78C4.54 15.66 2.86 16.26 1.1 16.58L0.14 8.06C1.18 7.98 2.28 7.72 3.44 7.28C4.64 6.84 5.82 6.3 6.98 5.66C8.14 5.02 9.18 4.34 10.1 3.62C11.02 2.86 11.72 2.12 12.2 1.4H20.42V41H10.46ZM44.1598 41.6C38.7598 41.6 34.6598 39.88 31.8598 36.44C29.0998 33 27.7198 27.92 27.7198 21.2C27.7198 14.48 29.0998 9.4 31.8598 5.96C34.6598 2.52 38.7598 0.799999 44.1598 0.799999C49.5598 0.799999 53.6398 2.52 56.3998 5.96C59.1998 9.4 60.5998 14.48 60.5998 21.2C60.5998 27.92 59.1998 33 56.3998 36.44C53.6398 39.88 49.5598 41.6 44.1598 41.6ZM44.1598 33.56C45.6398 33.56 46.8398 33.16 47.7598 32.36C48.6798 31.52 49.3398 30.2 49.7398 28.4C50.1798 26.56 50.3998 24.16 50.3998 21.2C50.3998 18.24 50.1798 15.86 49.7398 14.06C49.3398 12.22 48.6798 10.9 47.7598 10.1C46.8398 9.26 45.6398 8.84 44.1598 8.84C42.7198 8.84 41.5198 9.26 40.5598 10.1C39.6398 10.9 38.9598 12.22 38.5198 14.06C38.1198 15.86 37.9198 18.24 37.9198 21.2C37.9198 24.16 38.1198 26.56 38.5198 28.4C38.9598 30.2 39.6398 31.52 40.5598 32.36C41.5198 33.16 42.7198 33.56 44.1598 33.56ZM82.7731 41.6C77.3731 41.6 73.2731 39.88 70.4731 36.44C67.7131 33 66.3331 27.92 66.3331 21.2C66.3331 14.48 67.7131 9.4 70.4731 5.96C73.2731 2.52 77.3731 0.799999 82.7731 0.799999C88.1731 0.799999 92.2531 2.52 95.0131 5.96C97.8131 9.4 99.2131 14.48 99.2131 21.2C99.2131 27.92 97.8131 33 95.0131 36.44C92.2531 39.88 88.1731 41.6 82.7731 41.6ZM82.7731 33.56C84.2531 33.56 85.4531 33.16 86.3731 32.36C87.2931 31.52 87.9531 30.2 88.3531 28.4C88.7931 26.56 89.0131 24.16 89.0131 21.2C89.0131 18.24 88.7931 15.86 88.3531 14.06C87.9531 12.22 87.2931 10.9 86.3731 10.1C85.4531 9.26 84.2531 8.84 82.7731 8.84C81.3331 8.84 80.1331 9.26 79.1731 10.1C78.2531 10.9 77.5731 12.22 77.1331 14.06C76.7331 15.86 76.5331 18.24 76.5331 21.2C76.5331 24.16 76.7331 26.56 77.1331 28.4C77.5731 30.2 78.2531 31.52 79.1731 32.36C80.1331 33.16 81.3331 33.56 82.7731 33.56Z" fill="#FCD54C"/>
</svg>
