<svg id="true" viewBox="0 0 13 481" xmlns="http://www.w3.org/2000/svg">
<path d="M3.344 12.704L3.488 12.544L3.616 12.464L3.76 12.544C3.968 12.384 4.144 12.208 4.288 12.032C4.432 11.856 4.704 11.392 5.136 10.672L6.128 8.992C6.656 8.096 9.424 4.336 10.048 3.632C11.488 1.984 11.968 1.488 12.16 1.232C12.336 1.008 12.448 0.832 12.448 0.704C12.448 0.624 12.4 0.495999 12.32 0.495999C12.24 0.495999 12.112 0.559999 11.952 0.672L12.08 0.384L11.536 0.704L11.568 0.48C11.536 0.575999 11.28 0.832 11.216 0.832C11.168 0.832 11.152 0.783999 11.152 0.704V0.639999L10.704 0.863999C10.672 0.863999 10.64 0.848 10.64 0.799999C10.64 0.752 10.672 0.639999 10.704 0.48C10.48 0.719999 10.16 0.992 9.744 1.28C9.184 1.664 7.008 4.4 6.128 5.824C5.536 6.768 5.296 7.328 5.2 7.328C5.168 7.328 5.152 7.264 5.136 7.136C4.848 7.792 4.592 8.336 4.336 8.736C4.08 9.136 3.84 9.344 3.664 9.344C3.456 9.344 3.28 8.944 3.088 8.128C3.008 7.776 2.832 7.552 2.576 7.424L2.528 7.408C2.48 7.408 2.416 7.44 2.336 7.488C2.256 7.536 2.208 7.584 2.176 7.584H2.16L1.872 7.488L1.616 7.872C1.584 7.92 1.52 7.936 1.472 7.936C1.392 7.936 1.328 7.92 1.296 7.872C1.232 8.096 1.152 8.208 1.088 8.208C1.04 8.208 0.944 8.176 0.816 8.096C0.928 8.944 1.024 9.504 1.12 9.776C1.312 10.304 1.744 11.504 2.16 12.304C2.208 12.4 2.272 12.512 2.32 12.608C2.48 12.512 2.528 12.496 2.64 12.496L2.768 12.512C2.848 12.544 2.896 12.592 2.896 12.672L3.264 12.496C3.328 12.496 3.344 12.56 3.344 12.704ZM3.344 64.704L3.488 64.544L3.616 64.464L3.76 64.544C3.968 64.384 4.144 64.208 4.288 64.032C4.432 63.856 4.704 63.392 5.136 62.672L6.128 60.992C6.656 60.096 9.424 56.336 10.048 55.632C11.488 53.984 11.968 53.488 12.16 53.232C12.336 53.008 12.448 52.832 12.448 52.704C12.448 52.624 12.4 52.496 12.32 52.496C12.24 52.496 12.112 52.56 11.952 52.672L12.08 52.384L11.536 52.704L11.568 52.48C11.536 52.576 11.28 52.832 11.216 52.832C11.168 52.832 11.152 52.784 11.152 52.704V52.64L10.704 52.864C10.672 52.864 10.64 52.848 10.64 52.8C10.64 52.752 10.672 52.64 10.704 52.48C10.48 52.72 10.16 52.992 9.744 53.28C9.184 53.664 7.008 56.4 6.128 57.824C5.536 58.768 5.296 59.328 5.2 59.328C5.168 59.328 5.152 59.264 5.136 59.136C4.848 59.792 4.592 60.336 4.336 60.736C4.08 61.136 3.84 61.344 3.664 61.344C3.456 61.344 3.28 60.944 3.088 60.128C3.008 59.776 2.832 59.552 2.576 59.424L2.528 59.408C2.48 59.408 2.416 59.44 2.336 59.488C2.256 59.536 2.208 59.584 2.176 59.584H2.16L1.872 59.488L1.616 59.872C1.584 59.92 1.52 59.936 1.472 59.936C1.392 59.936 1.328 59.92 1.296 59.872C1.232 60.096 1.152 60.208 1.088 60.208C1.04 60.208 0.944 60.176 0.816 60.096C0.928 60.944 1.024 61.504 1.12 61.776C1.312 62.304 1.744 63.504 2.16 64.304C2.208 64.4 2.272 64.512 2.32 64.608C2.48 64.512 2.528 64.496 2.64 64.496L2.768 64.512C2.848 64.544 2.896 64.592 2.896 64.672L3.264 64.496C3.328 64.496 3.344 64.56 3.344 64.704ZM3.344 116.704L3.488 116.544L3.616 116.464L3.76 116.544C3.968 116.384 4.144 116.208 4.288 116.032C4.432 115.856 4.704 115.392 5.136 114.672L6.128 112.992C6.656 112.096 9.424 108.336 10.048 107.632C11.488 105.984 11.968 105.488 12.16 105.232C12.336 105.008 12.448 104.832 12.448 104.704C12.448 104.624 12.4 104.496 12.32 104.496C12.24 104.496 12.112 104.56 11.952 104.672L12.08 104.384L11.536 104.704L11.568 104.48C11.536 104.576 11.28 104.832 11.216 104.832C11.168 104.832 11.152 104.784 11.152 104.704V104.64L10.704 104.864C10.672 104.864 10.64 104.848 10.64 104.8C10.64 104.752 10.672 104.64 10.704 104.48C10.48 104.72 10.16 104.992 9.744 105.28C9.184 105.664 7.008 108.4 6.128 109.824C5.536 110.768 5.296 111.328 5.2 111.328C5.168 111.328 5.152 111.264 5.136 111.136C4.848 111.792 4.592 112.336 4.336 112.736C4.08 113.136 3.84 113.344 3.664 113.344C3.456 113.344 3.28 112.944 3.088 112.128C3.008 111.776 2.832 111.552 2.576 111.424L2.528 111.408C2.48 111.408 2.416 111.44 2.336 111.488C2.256 111.536 2.208 111.584 2.176 111.584H2.16L1.872 111.488L1.616 111.872C1.584 111.92 1.52 111.936 1.472 111.936C1.392 111.936 1.328 111.92 1.296 111.872C1.232 112.096 1.152 112.208 1.088 112.208C1.04 112.208 0.944 112.176 0.816 112.096C0.928 112.944 1.024 113.504 1.12 113.776C1.312 114.304 1.744 115.504 2.16 116.304C2.208 116.4 2.272 116.512 2.32 116.608C2.48 116.512 2.528 116.496 2.64 116.496L2.768 116.512C2.848 116.544 2.896 116.592 2.896 116.672L3.264 116.496C3.328 116.496 3.344 116.56 3.344 116.704ZM3.344 168.704L3.488 168.544L3.616 168.464L3.76 168.544C3.968 168.384 4.144 168.208 4.288 168.032C4.432 167.856 4.704 167.392 5.136 166.672L6.128 164.992C6.656 164.096 9.424 160.336 10.048 159.632C11.488 157.984 11.968 157.488 12.16 157.232C12.336 157.008 12.448 156.832 12.448 156.704C12.448 156.624 12.4 156.496 12.32 156.496C12.24 156.496 12.112 156.56 11.952 156.672L12.08 156.384L11.536 156.704L11.568 156.48C11.536 156.576 11.28 156.832 11.216 156.832C11.168 156.832 11.152 156.784 11.152 156.704V156.64L10.704 156.864C10.672 156.864 10.64 156.848 10.64 156.8C10.64 156.752 10.672 156.64 10.704 156.48C10.48 156.72 10.16 156.992 9.744 157.28C9.184 157.664 7.008 160.4 6.128 161.824C5.536 162.768 5.296 163.328 5.2 163.328C5.168 163.328 5.152 163.264 5.136 163.136C4.848 163.792 4.592 164.336 4.336 164.736C4.08 165.136 3.84 165.344 3.664 165.344C3.456 165.344 3.28 164.944 3.088 164.128C3.008 163.776 2.832 163.552 2.576 163.424L2.528 163.408C2.48 163.408 2.416 163.44 2.336 163.488C2.256 163.536 2.208 163.584 2.176 163.584H2.16L1.872 163.488L1.616 163.872C1.584 163.92 1.52 163.936 1.472 163.936C1.392 163.936 1.328 163.92 1.296 163.872C1.232 164.096 1.152 164.208 1.088 164.208C1.04 164.208 0.944 164.176 0.816 164.096C0.928 164.944 1.024 165.504 1.12 165.776C1.312 166.304 1.744 167.504 2.16 168.304C2.208 168.4 2.272 168.512 2.32 168.608C2.48 168.512 2.528 168.496 2.64 168.496L2.768 168.512C2.848 168.544 2.896 168.592 2.896 168.672L3.264 168.496C3.328 168.496 3.344 168.56 3.344 168.704ZM3.344 220.704L3.488 220.544L3.616 220.464L3.76 220.544C3.968 220.384 4.144 220.208 4.288 220.032C4.432 219.856 4.704 219.392 5.136 218.672L6.128 216.992C6.656 216.096 9.424 212.336 10.048 211.632C11.488 209.984 11.968 209.488 12.16 209.232C12.336 209.008 12.448 208.832 12.448 208.704C12.448 208.624 12.4 208.496 12.32 208.496C12.24 208.496 12.112 208.56 11.952 208.672L12.08 208.384L11.536 208.704L11.568 208.48C11.536 208.576 11.28 208.832 11.216 208.832C11.168 208.832 11.152 208.784 11.152 208.704V208.64L10.704 208.864C10.672 208.864 10.64 208.848 10.64 208.8C10.64 208.752 10.672 208.64 10.704 208.48C10.48 208.72 10.16 208.992 9.744 209.28C9.184 209.664 7.008 212.4 6.128 213.824C5.536 214.768 5.296 215.328 5.2 215.328C5.168 215.328 5.152 215.264 5.136 215.136C4.848 215.792 4.592 216.336 4.336 216.736C4.08 217.136 3.84 217.344 3.664 217.344C3.456 217.344 3.28 216.944 3.088 216.128C3.008 215.776 2.832 215.552 2.576 215.424L2.528 215.408C2.48 215.408 2.416 215.44 2.336 215.488C2.256 215.536 2.208 215.584 2.176 215.584H2.16L1.872 215.488L1.616 215.872C1.584 215.92 1.52 215.936 1.472 215.936C1.392 215.936 1.328 215.92 1.296 215.872C1.232 216.096 1.152 216.208 1.088 216.208C1.04 216.208 0.944 216.176 0.816 216.096C0.928 216.944 1.024 217.504 1.12 217.776C1.312 218.304 1.744 219.504 2.16 220.304C2.208 220.4 2.272 220.512 2.32 220.608C2.48 220.512 2.528 220.496 2.64 220.496L2.768 220.512C2.848 220.544 2.896 220.592 2.896 220.672L3.264 220.496C3.328 220.496 3.344 220.56 3.344 220.704ZM3.344 272.704L3.488 272.544L3.616 272.464L3.76 272.544C3.968 272.384 4.144 272.208 4.288 272.032C4.432 271.856 4.704 271.392 5.136 270.672L6.128 268.992C6.656 268.096 9.424 264.336 10.048 263.632C11.488 261.984 11.968 261.488 12.16 261.232C12.336 261.008 12.448 260.832 12.448 260.704C12.448 260.624 12.4 260.496 12.32 260.496C12.24 260.496 12.112 260.56 11.952 260.672L12.08 260.384L11.536 260.704L11.568 260.48C11.536 260.576 11.28 260.832 11.216 260.832C11.168 260.832 11.152 260.784 11.152 260.704V260.64L10.704 260.864C10.672 260.864 10.64 260.848 10.64 260.8C10.64 260.752 10.672 260.64 10.704 260.48C10.48 260.72 10.16 260.992 9.744 261.28C9.184 261.664 7.008 264.4 6.128 265.824C5.536 266.768 5.296 267.328 5.2 267.328C5.168 267.328 5.152 267.264 5.136 267.136C4.848 267.792 4.592 268.336 4.336 268.736C4.08 269.136 3.84 269.344 3.664 269.344C3.456 269.344 3.28 268.944 3.088 268.128C3.008 267.776 2.832 267.552 2.576 267.424L2.528 267.408C2.48 267.408 2.416 267.44 2.336 267.488C2.256 267.536 2.208 267.584 2.176 267.584H2.16L1.872 267.488L1.616 267.872C1.584 267.92 1.52 267.936 1.472 267.936C1.392 267.936 1.328 267.92 1.296 267.872C1.232 268.096 1.152 268.208 1.088 268.208C1.04 268.208 0.944 268.176 0.816 268.096C0.928 268.944 1.024 269.504 1.12 269.776C1.312 270.304 1.744 271.504 2.16 272.304C2.208 272.4 2.272 272.512 2.32 272.608C2.48 272.512 2.528 272.496 2.64 272.496L2.768 272.512C2.848 272.544 2.896 272.592 2.896 272.672L3.264 272.496C3.328 272.496 3.344 272.56 3.344 272.704ZM3.344 324.704L3.488 324.544L3.616 324.464L3.76 324.544C3.968 324.384 4.144 324.208 4.288 324.032C4.432 323.856 4.704 323.392 5.136 322.672L6.128 320.992C6.656 320.096 9.424 316.336 10.048 315.632C11.488 313.984 11.968 313.488 12.16 313.232C12.336 313.008 12.448 312.832 12.448 312.704C12.448 312.624 12.4 312.496 12.32 312.496C12.24 312.496 12.112 312.56 11.952 312.672L12.08 312.384L11.536 312.704L11.568 312.48C11.536 312.576 11.28 312.832 11.216 312.832C11.168 312.832 11.152 312.784 11.152 312.704V312.64L10.704 312.864C10.672 312.864 10.64 312.848 10.64 312.8C10.64 312.752 10.672 312.64 10.704 312.48C10.48 312.72 10.16 312.992 9.744 313.28C9.184 313.664 7.008 316.4 6.128 317.824C5.536 318.768 5.296 319.328 5.2 319.328C5.168 319.328 5.152 319.264 5.136 319.136C4.848 319.792 4.592 320.336 4.336 320.736C4.08 321.136 3.84 321.344 3.664 321.344C3.456 321.344 3.28 320.944 3.088 320.128C3.008 319.776 2.832 319.552 2.576 319.424L2.528 319.408C2.48 319.408 2.416 319.44 2.336 319.488C2.256 319.536 2.208 319.584 2.176 319.584H2.16L1.872 319.488L1.616 319.872C1.584 319.92 1.52 319.936 1.472 319.936C1.392 319.936 1.328 319.92 1.296 319.872C1.232 320.096 1.152 320.208 1.088 320.208C1.04 320.208 0.944 320.176 0.816 320.096C0.928 320.944 1.024 321.504 1.12 321.776C1.312 322.304 1.744 323.504 2.16 324.304C2.208 324.4 2.272 324.512 2.32 324.608C2.48 324.512 2.528 324.496 2.64 324.496L2.768 324.512C2.848 324.544 2.896 324.592 2.896 324.672L3.264 324.496C3.328 324.496 3.344 324.56 3.344 324.704ZM3.344 376.704L3.488 376.544L3.616 376.464L3.76 376.544C3.968 376.384 4.144 376.208 4.288 376.032C4.432 375.856 4.704 375.392 5.136 374.672L6.128 372.992C6.656 372.096 9.424 368.336 10.048 367.632C11.488 365.984 11.968 365.488 12.16 365.232C12.336 365.008 12.448 364.832 12.448 364.704C12.448 364.624 12.4 364.496 12.32 364.496C12.24 364.496 12.112 364.56 11.952 364.672L12.08 364.384L11.536 364.704L11.568 364.48C11.536 364.576 11.28 364.832 11.216 364.832C11.168 364.832 11.152 364.784 11.152 364.704V364.64L10.704 364.864C10.672 364.864 10.64 364.848 10.64 364.8C10.64 364.752 10.672 364.64 10.704 364.48C10.48 364.72 10.16 364.992 9.744 365.28C9.184 365.664 7.008 368.4 6.128 369.824C5.536 370.768 5.296 371.328 5.2 371.328C5.168 371.328 5.152 371.264 5.136 371.136C4.848 371.792 4.592 372.336 4.336 372.736C4.08 373.136 3.84 373.344 3.664 373.344C3.456 373.344 3.28 372.944 3.088 372.128C3.008 371.776 2.832 371.552 2.576 371.424L2.528 371.408C2.48 371.408 2.416 371.44 2.336 371.488C2.256 371.536 2.208 371.584 2.176 371.584H2.16L1.872 371.488L1.616 371.872C1.584 371.92 1.52 371.936 1.472 371.936C1.392 371.936 1.328 371.92 1.296 371.872C1.232 372.096 1.152 372.208 1.088 372.208C1.04 372.208 0.944 372.176 0.816 372.096C0.928 372.944 1.024 373.504 1.12 373.776C1.312 374.304 1.744 375.504 2.16 376.304C2.208 376.4 2.272 376.512 2.32 376.608C2.48 376.512 2.528 376.496 2.64 376.496L2.768 376.512C2.848 376.544 2.896 376.592 2.896 376.672L3.264 376.496C3.328 376.496 3.344 376.56 3.344 376.704ZM3.344 428.704L3.488 428.544L3.616 428.464L3.76 428.544C3.968 428.384 4.144 428.208 4.288 428.032C4.432 427.856 4.704 427.392 5.136 426.672L6.128 424.992C6.656 424.096 9.424 420.336 10.048 419.632C11.488 417.984 11.968 417.488 12.16 417.232C12.336 417.008 12.448 416.832 12.448 416.704C12.448 416.624 12.4 416.496 12.32 416.496C12.24 416.496 12.112 416.56 11.952 416.672L12.08 416.384L11.536 416.704L11.568 416.48C11.536 416.576 11.28 416.832 11.216 416.832C11.168 416.832 11.152 416.784 11.152 416.704V416.64L10.704 416.864C10.672 416.864 10.64 416.848 10.64 416.8C10.64 416.752 10.672 416.64 10.704 416.48C10.48 416.72 10.16 416.992 9.744 417.28C9.184 417.664 7.008 420.4 6.128 421.824C5.536 422.768 5.296 423.328 5.2 423.328C5.168 423.328 5.152 423.264 5.136 423.136C4.848 423.792 4.592 424.336 4.336 424.736C4.08 425.136 3.84 425.344 3.664 425.344C3.456 425.344 3.28 424.944 3.088 424.128C3.008 423.776 2.832 423.552 2.576 423.424L2.528 423.408C2.48 423.408 2.416 423.44 2.336 423.488C2.256 423.536 2.208 423.584 2.176 423.584H2.16L1.872 423.488L1.616 423.872C1.584 423.92 1.52 423.936 1.472 423.936C1.392 423.936 1.328 423.92 1.296 423.872C1.232 424.096 1.152 424.208 1.088 424.208C1.04 424.208 0.944 424.176 0.816 424.096C0.928 424.944 1.024 425.504 1.12 425.776C1.312 426.304 1.744 427.504 2.16 428.304C2.208 428.4 2.272 428.512 2.32 428.608C2.48 428.512 2.528 428.496 2.64 428.496L2.768 428.512C2.848 428.544 2.896 428.592 2.896 428.672L3.264 428.496C3.328 428.496 3.344 428.56 3.344 428.704ZM3.344 480.704L3.488 480.544L3.616 480.464L3.76 480.544C3.968 480.384 4.144 480.208 4.288 480.032C4.432 479.856 4.704 479.392 5.136 478.672L6.128 476.992C6.656 476.096 9.424 472.336 10.048 471.632C11.488 469.984 11.968 469.488 12.16 469.232C12.336 469.008 12.448 468.832 12.448 468.704C12.448 468.624 12.4 468.496 12.32 468.496C12.24 468.496 12.112 468.56 11.952 468.672L12.08 468.384L11.536 468.704L11.568 468.48C11.536 468.576 11.28 468.832 11.216 468.832C11.168 468.832 11.152 468.784 11.152 468.704V468.64L10.704 468.864C10.672 468.864 10.64 468.848 10.64 468.8C10.64 468.752 10.672 468.64 10.704 468.48C10.48 468.72 10.16 468.992 9.744 469.28C9.184 469.664 7.008 472.4 6.128 473.824C5.536 474.768 5.296 475.328 5.2 475.328C5.168 475.328 5.152 475.264 5.136 475.136C4.848 475.792 4.592 476.336 4.336 476.736C4.08 477.136 3.84 477.344 3.664 477.344C3.456 477.344 3.28 476.944 3.088 476.128C3.008 475.776 2.832 475.552 2.576 475.424L2.528 475.408C2.48 475.408 2.416 475.44 2.336 475.488C2.256 475.536 2.208 475.584 2.176 475.584H2.16L1.872 475.488L1.616 475.872C1.584 475.92 1.52 475.936 1.472 475.936C1.392 475.936 1.328 475.92 1.296 475.872C1.232 476.096 1.152 476.208 1.088 476.208C1.04 476.208 0.944 476.176 0.816 476.096C0.928 476.944 1.024 477.504 1.12 477.776C1.312 478.304 1.744 479.504 2.16 480.304C2.208 480.4 2.272 480.512 2.32 480.608C2.48 480.512 2.528 480.496 2.64 480.496L2.768 480.512C2.848 480.544 2.896 480.592 2.896 480.672L3.264 480.496C3.328 480.496 3.344 480.56 3.344 480.704Z" fill="#FCD54C"/>
</svg>
