<svg id="twenty" viewBox="0 0 70 42"  xmlns="http://www.w3.org/2000/svg">
<path d="M1.6 41V34.4C5 32.28 7.9 30.3 10.3 28.46C12.7 26.62 14.64 24.88 16.12 23.24C17.64 21.6 18.76 20.04 19.48 18.56C20.2 17.08 20.56 15.64 20.56 14.24C20.56 12.72 20.1 11.46 19.18 10.46C18.3 9.42 16.98 8.9 15.22 8.9C13.34 8.9 11.88 9.6 10.84 11C9.8 12.36 9.24 14.36 9.16 17L0.34 14.3C0.42 11.34 1.12 8.86 2.44 6.86C3.8 4.86 5.64 3.36 7.96 2.36C10.28 1.32 12.92 0.799999 15.88 0.799999C18.48 0.799999 20.72 1.18 22.6 1.94C24.52 2.66 26.08 3.64 27.28 4.88C28.48 6.08 29.36 7.44 29.92 8.96C30.52 10.44 30.82 11.96 30.82 13.52C30.82 16.08 30.16 18.48 28.84 20.72C27.52 22.92 25.6 25.06 23.08 27.14C20.6 29.18 17.58 31.24 14.02 33.32V33.38C14.7 33.34 15.5 33.3 16.42 33.26C17.34 33.22 18.3 33.2 19.3 33.2C20.3 33.16 21.2 33.14 22 33.14H31.3V41H1.6ZM53.0622 41.6C47.6622 41.6 43.5622 39.88 40.7622 36.44C38.0022 33 36.6222 27.92 36.6222 21.2C36.6222 14.48 38.0022 9.4 40.7622 5.96C43.5622 2.52 47.6622 0.799999 53.0622 0.799999C58.4622 0.799999 62.5422 2.52 65.3022 5.96C68.1022 9.4 69.5022 14.48 69.5022 21.2C69.5022 27.92 68.1022 33 65.3022 36.44C62.5422 39.88 58.4622 41.6 53.0622 41.6ZM53.0622 33.56C54.5422 33.56 55.7422 33.16 56.6622 32.36C57.5822 31.52 58.2422 30.2 58.6422 28.4C59.0822 26.56 59.3022 24.16 59.3022 21.2C59.3022 18.24 59.0822 15.86 58.6422 14.06C58.2422 12.22 57.5822 10.9 56.6622 10.1C55.7422 9.26 54.5422 8.84 53.0622 8.84C51.6222 8.84 50.4222 9.26 49.4622 10.1C48.5422 10.9 47.8622 12.22 47.4222 14.06C47.0222 15.86 46.8222 18.24 46.8222 21.2C46.8222 24.16 47.0222 26.56 47.4222 28.4C47.8622 30.2 48.5422 31.52 49.4622 32.36C50.4222 33.16 51.6222 33.56 53.0622 33.56Z" fill="#FCD54C"/>
</svg>
